<svg xmlns="http://www.w3.org/2000/svg" version="1.1" xmlns:xlink="http://www.w3.org/1999/xlink" xmlns:svgjs="http://svgjs.dev/svgjs" width="100%" height="100%" viewBox="0 0 1000 600"><rect width="1000" height="600" x="0" y="0" fill="#82ad5c"/><g><rect width="333.3333333333333" height="333.3333333333333" rx="13.333333333333334" ry="13.333333333333334" y="245.3546743322957" fill="#2f4020" transform="matrix(0.5602053771689173,0,0,0.5602053771689173,0,69.18342636799711)" x="223.13233947753906"/><path d="M269.5555206669699 437.54995545621045L269.5555206669699 437.54995545621045L285.69357980695344 437.54995545621045Q286.34656485886023 446.9405023931566 291.2905945375835 454.3409996481008Q296.2035296900255 461.7104023767638 304.8167134699396 465.97035247729895Q313.42989724985375 470.2303025778341 325.09034460533314 470.2303025778341L325.09034460533314 470.2303025778341Q335.1649711204674 470.2303025778341 341.9746723760673 467.21413352855006Q348.81546815794854 464.1979644792661 352.2980551014517 458.81861143260494Q355.74954751867364 453.43925838594373 355.74954751867364 446.2875173412497L355.74954751867364 446.2875173412497Q355.74954751867364 438.8870200863055 352.17367699632666 434.40940830180136Q348.59780647397963 429.93179651729724 341.8813887972235 426.79124936288815Q335.1649711204674 423.65070220847906 325.99208586749023 420.75891126432015L325.99208586749023 420.75891126432015Q317.254523982451 418.05368747784894 308.2993004134428 414.4778169555019Q299.34407684443465 410.9019464331549 291.6015398003963 405.7402550704627Q283.89009728263926 400.6096582340517 279.1948238141662 393.3335390842326Q274.4995503456932 386.0574199344135 274.4995503456932 375.7651317353103L274.4995503456932 375.7651317353103Q274.4995503456932 365.69050522017614 279.9721869711982 356.82856523001175Q285.4448235967032 347.9977197661287 296.0791515849004 342.4939886143424Q306.71347957309763 337.0213519888374 321.7321357669551 337.0213519888374L321.7321357669551 337.0213519888374Q345.23959763560157 337.0213519888374 356.8689504647997 349.77010776416154Q368.5293978202791 362.54995806576693 368.06297992605994 383.60095235819244L368.06297992605994 383.60095235819244L351.9560153123577 383.60095235819244Q351.4895974181385 367.6805549021779 343.0007917433495 360.74647554145287Q334.4808915422792 353.8123961807277 320.830394504798 353.8123961807277L320.830394504798 353.8123961807277Q309.41870335956884 353.8123961807277 300.89880315849854 359.0673711222638Q292.40999748370956 364.32234606379984 292.40999748370956 375.5163755250601L292.40999748370956 375.5163755250601Q292.40999748370956 380.46040520378335 294.30676358686753 384.16065383125544Q296.2035296900255 387.82980793244633 300.5567633694045 390.9703550868554Q304.9410915750648 394.11090224126457 312.4348724088528 397.12707129054854Q319.92865324264096 400.1432403398326 330.9050210199322 403.75020538846087L330.9050210199322 403.75020538846087Q338.05676206462624 405.98901128071293 345.5816374246956 409.09846390884076Q353.0754182584837 412.2390110632499 359.4497961461458 416.9342845317229Q365.8241740338078 421.66065252647724 369.74208434524894 428.93677167629636Q373.65999465669 436.21289082611554 373.65999465669 447.1581640771255L373.65999465669 447.1581640771255Q373.65999465669 457.6992084864789 368.62268139912294 466.7477156343309Q363.5853681415558 475.8273173084642 352.9510401533586 481.42433203909434Q342.3167121651614 487.02134676972446 325.525667973271 487.02134676972446L325.525667973271 487.02134676972446Q311.1910913576017 487.02134676972446 301.02318126362366 483.10343645828334Q290.82417664336435 479.1855261468422 284.32542065057714 472.90443183802404Q277.85775918407126 466.65443205548706 274.3751722405681 459.8136362736058Q270.8925852970649 453.00393501800585 269.7731823509389 446.9405023931566Q268.65377940481284 440.9081642945886 269.5555206669699 437.54995545621045ZM464.5492949768668 484.78254087747234L400.52566536371455 484.78254087747234L400.52566536371455 339.26015788108947L457.8328773001107 339.26015788108947Q480.46969243288135 339.26015788108947 493.0940701030804 349.5524460801926Q505.74954229956063 359.8447342792958 505.74954229956063 378.2215993115313L505.74954229956063 378.2215993115313Q505.74954229956063 389.63329045676045 501.1786469362128 396.7850315014545Q496.5766570465835 403.96786707242984 488.3055130557635 407.5437375947768Q480.00327453866214 411.11960811712385 468.8092450774019 412.2390110632499L468.8092450774019 412.2390110632499L469.27566297162105 410.9019464331549Q477.54680696244117 411.3372698010928 484.9473042173854 413.0163742202818Q492.3167069460484 414.6954786394709 498.0380997818036 418.3024436880992Q503.72839809127754 421.87831421044615 507.08660692965566 428.1283139929831Q510.44481576803366 434.40940830180136 510.44481576803366 444.26637313296663L510.44481576803366 444.26637313296663Q510.44481576803366 457.4815468025099 504.63013935343463 466.18801416126786Q498.81546293883554 474.9255760463071 488.3987966346073 479.5275659359363Q477.98213033037905 484.0984612992843 464.5492949768668 484.78254087747234L464.5492949768668 484.78254087747234ZM418.4361125017309 421.19423463225803L418.4361125017309 467.99149668558204L460.0716831923627 467.99149668558204Q475.3080010701891 467.99149668558204 483.9211848501032 462.2701038498268Q492.5343686300173 456.5798055403529 492.5343686300173 444.26637313296663L492.5343686300173 444.26637313296663Q492.5343686300173 434.40940830180136 487.06173200451235 429.49647314935936Q481.58909537900735 424.5524434706361 473.0691951779371 422.8733390514471Q464.5492949768668 421.19423463225803 455.59407140785856 421.19423463225803L455.59407140785856 421.19423463225803L418.4361125017309 421.19423463225803ZM418.4361125017309 356.05120207297983L418.4361125017309 404.4031904403677L455.59407140785856 404.4031904403677Q470.830389285685 404.4031904403677 479.44357306559914 397.81115086873666Q488.0567568455133 391.1880167708244 488.0567568455133 378.87458436343815L488.0567568455133 378.87458436343815Q488.0567568455133 366.80990816630214 479.44357306559914 361.4305551196409Q470.830389285685 356.05120207297983 457.8328773001107 356.05120207297983L457.8328773001107 356.05120207297983L418.4361125017309 356.05120207297983Z " fill="#82ad5c" transform="matrix(0.5602053771689173,0,0,0.5602053771689173,0,69.18342636799711)"/><path d="M640.0985123517682 418.5259760740396L640.0985123517682 418.5259760740396L652.1124006748628 418.5259760740396Q652.5985117630805 425.5167164855512 656.2790671453001 431.0259754853518Q659.9364743804618 436.5120863380944 666.3485111155238 439.68338248503835Q672.7605478505858 442.8546786319824 681.4411029973304 442.8546786319824L681.4411029973304 442.8546786319824Q688.9411026441177 442.8546786319824 694.0105468498166 440.6093083673578Q699.1031392025734 438.3639381027332 701.6957316730677 434.35930866170173Q704.2651759965041 430.3546792206702 704.2651759965041 425.03060539733355L704.2651759965041 425.03060539733355Q704.2651759965041 419.52134639753297 701.6031390848358 416.1880132211831Q698.9411021731675 412.8546800448332 693.9411024086426 410.5167171919766Q688.9411026441177 408.17875433912013 682.112399262012 406.02597666272743L682.112399262012 406.02597666272743Q675.6077699387181 404.01208786868267 668.9411035860182 401.3500509570144Q662.2744372333184 398.68801404534605 656.51054861588 394.84542163372043Q650.7698081454996 391.0259773691528 647.2744379397438 385.6093109575842Q643.779067733988 380.19264454601563 643.779067733988 372.5306078698224L643.779067733988 372.5306078698224Q643.779067733988 365.03060822303513 647.8531416161934 358.4333863115092Q651.9272154983989 351.8593125470413 659.8438817922299 347.7620905177779Q667.7605480860609 343.6880166355724 678.941103115068 343.6880166355724L678.941103115068 343.6880166355724Q696.4411022909051 343.6880166355724 705.0985092905917 353.1787569293465Q713.7790644373362 362.6926453701786 713.4318422314664 378.3639409284348L713.4318422314664 378.3639409284348L701.4411020554298 378.3639409284348Q701.0938798495602 366.5120896347462 694.77443570273 361.3500528408154Q688.431843408842 356.1880160468846 678.2698068503864 356.1880160468846L678.2698068503864 356.1880160468846Q669.7744368801057 356.1880160468846 663.4318445862177 360.10005289968416Q657.1124004393876 364.01208975248375 657.1124004393876 372.3454226933585L657.1124004393876 372.3454226933585Q657.1124004393876 376.0259780755782 658.5244374099248 378.7806075754785Q659.9364743804618 381.5120889283208 663.1772149685798 383.8500517811773Q666.4411037037557 386.18801463403383 672.0198071447303 388.43338489865846Q677.5985105857048 390.67875516328303 685.7698064971737 393.3639402220094L685.7698064971737 393.3639402220094Q691.0938803205104 395.03060681018434 696.6957319085428 397.3454215159829Q702.2744353495174 399.6833843688394 707.0198054964044 403.17875457459525Q711.7651756432914 406.697272927409 714.6818421725976 412.1139393389776Q717.5985087019037 417.5306057505462 717.5985087019037 425.6787535149572L717.5985087019037 425.6787535149572Q717.5985087019037 433.52597536761425 713.8485088785101 440.262086161488Q710.0985090551164 447.0213451024198 702.1818427612855 451.1880115728572Q694.2651764674544 455.3546780432946 681.7651770561422 455.3546780432946L681.7651770561422 455.3546780432946Q671.0938812624108 455.3546780432946 663.5244371744495 452.4380115139884Q655.9318449394303 449.52134498468223 651.0938822043114 444.84541927896913Q646.2790676162504 440.19264172031404 643.686475145756 435.10004936755723Q641.0938826752616 430.03060516185843 640.2605493811741 425.5167164855512Q639.4272160870867 421.0259759563021 640.0985123517682 418.5259760740396ZM805.7698008457706 370.35468204637175L805.7698008457706 453.68801145511964L792.436468140371 453.68801145511964L792.436468140371 370.35468204637175L805.7698008457706 370.35468204637175ZM793.2698014344584 414.8454206918199L793.2698014344584 414.8454206918199L793.4318384638643 419.52134639753297Q793.2698014344584 421.5120870445198 792.5290607286029 425.6787535149572Q791.7651718756894 429.8454199853945 790.0290608463405 434.93801233815134Q788.2698016699336 440.03060469090815 785.0290610818156 444.68338224956324Q781.7651723466396 449.35930795527634 776.6957281409408 452.34541892575646Q771.603135788184 455.3546780432946 764.1031361413967 455.3546780432946L764.1031361413967 455.3546780432946Q759.2651734062777 455.3546780432946 754.1957292005789 453.94264107275745Q749.103136847822 452.5306041022203 744.7744333479787 449.2667153670444Q740.4457298481354 446.0259747789264 737.7605447894092 440.19264172031404Q735.0985078777408 434.35930866170173 735.0985078777408 425.6787535149572L735.0985078777408 425.6787535149572L735.0985078777408 370.35468204637175L748.4318405831405 370.35468204637175L748.4318405831405 422.34542033860725Q748.4318405831405 429.8454199853945 750.8623960242289 434.10467904406386Q753.2698033182595 438.3639381027332 757.4364697886969 440.19264172031404Q761.6031362591342 442.0213453378949 766.765173053065 442.0213453378949L766.765173053065 442.0213453378949Q775.2605430233457 442.0213453378949 780.9318390525522 437.69264183805166Q786.6031350817585 433.36393833820836 789.6123941992968 427.02134604432035Q792.5985051697768 420.6787537504323 793.2698014344584 414.8454206918199ZM827.436466492045 453.68801145511964L827.436466492045 370.35468204637175L840.7697991974447 370.35468204637175L840.7697991974447 453.68801145511964L827.436466492045 453.68801145511964ZM869.4272052552308 368.6880154581968L869.4272052552308 368.6880154581968Q876.0938716079306 368.6880154581968 881.4410935783252 370.67875610518354Q886.765167401662 372.6926448992283 890.4457227838816 376.5120891637959Q894.1031300190433 380.3546815754215 896.09387066603 385.7713479869901Q898.1077594600748 391.1880143985587 898.1077594600748 398.01671778066446L898.1077594600748 398.01671778066446L898.1077594600748 453.68801145511964L884.7744267546751 453.68801145511964L884.7744267546751 401.3500509570144Q884.7744267546751 391.6972736338344 880.260538078368 386.8593108987154Q875.7697975491188 382.0213481635965 866.7651683435624 382.0213481635965L866.7651683435624 382.0213481635965Q859.9364649614566 382.0213481635965 854.1031319028443 385.51671836935225Q848.269798844232 389.01208857510807 844.5197990208384 395.1000512513583Q840.7697991974447 401.1880139276085 839.9364659033572 409.19727280967146L839.9364659033572 409.19727280967146L839.7744288739513 399.52134733943353Q840.6077621680388 392.5306069279219 843.1772064914752 386.8593108987154Q845.7697989619695 381.188014869509 849.6818358147691 377.1139409873035Q853.5938726675687 373.0167189580401 858.6864650203255 370.86394128164744Q863.7790573730823 368.6880154581968 869.4272052552308 368.6880154581968ZM915.7697956653177 426.8593090149144L915.7697956653177 426.8593090149144L928.1077580472241 426.8593090149144Q928.5938691354418 434.01208645583193 933.5244244587926 438.52597513213914Q938.4318316350856 443.0167156613883 947.7605348994538 443.0167156613883L947.7605348994538 443.0167156613883Q953.4318309286601 443.0167156613883 956.6957196638363 441.51208610261926Q959.9364602519541 440.03060469090815 961.4410898107232 437.4380122204138Q962.9457193694923 434.8454197499194 962.9457193694923 431.6972717500334L962.9457193694923 431.6972717500334Q962.9457193694923 427.8546793384078 961.0244231636794 425.6093090737832Q959.1031269578667 423.3639388091586 955.8623863697486 421.8593092503895Q952.5984976345727 420.3546796916205 948.4318311641354 419.01208716225733L948.4318311641354 419.01208716225733Q943.5938684290163 417.1833835446765 938.5244242233175 415.10005030945774Q933.4318318705607 413.01671707423907 929.0105357824855 410.1000505449329Q924.6123878414681 407.1833840156267 921.9272027827419 402.9472731040154Q919.2651658710736 398.68801404534605 919.2651658710736 392.6926439573278L919.2651658710736 392.6926439573278Q919.2651658710736 387.6926441928029 921.2790546651183 383.2713481047277Q923.2697953121051 378.85005201665246 927.0197951354988 375.6093114285345Q930.7697949588924 372.3454226933585 935.8623873116493 370.51671907577764Q940.9318315173481 368.6880154581968 947.1123867818302 368.6880154581968L947.1123867818302 368.6880154581968Q955.4457197227049 368.6880154581968 961.1864601930854 372.0213486345467Q966.9272006634657 375.35468181089664 970.0290523692358 381.4426444871468Q973.1077559279479 387.530607163397 973.2697929573538 395.516717898402L973.2697929573538 395.516717898402L961.7651638695351 395.516717898402Q960.6077565166357 388.0167182516147 957.0197937226479 384.61394063409085Q953.4318309286601 381.188014869509 946.7651645759603 381.188014869509L946.7651645759603 381.188014869509Q939.9364611938546 381.188014869509 936.279053958693 384.1972739870471Q932.5984985764732 387.1833849575272 932.5984985764732 392.1833847220521L932.5984985764732 392.1833847220521Q932.5984985764732 395.8639401042718 935.2605354881415 398.2713473983023Q937.9457205468678 400.6787546923328 942.1818314584792 402.6000508981456Q946.4410905171486 404.5213471039584 951.2790532522675 406.51208775094517L951.2790532522675 406.51208775094517Q956.0938678403285 408.5259765449899 960.6077565166357 410.5167171919766Q965.098497045885 412.5306059860214 968.5938672516407 415.1926428976897Q972.1123856044545 417.854679809358 974.1957188396732 421.7667166621576Q976.2790520748919 425.6787535149572 976.2790520748919 431.5120865735695L976.2790520748919 431.5120865735695Q976.2790520748919 438.52597513213914 973.015163339716 443.94264154370774Q969.7744227515979 449.35930795527634 963.524423045942 452.34541892575646Q957.2744233402858 455.3546780432946 948.2697941347295 455.3546780432946L948.2697941347295 455.3546780432946Q940.0984982232605 455.3546780432946 934.3577577528802 453.27134480807587Q928.5938691354418 451.1880115728572 924.7744248708741 447.76208580827534Q920.9318324592485 444.35930819075145 918.8484992240299 440.5167157791259Q916.7651659888112 436.6972715145582 916.0938697241296 433.01671613233856Q915.445721606506 429.35930889717685 915.7697956653177 426.8593090149144ZM1052.2744188662582 426.8593090149144L1052.2744188662582 426.8593090149144L1064.7744182775705 426.8593090149144Q1063.4318257482073 435.03060492638326 1058.8484926307265 441.4426416614453Q1054.2651595132452 447.85467839650727 1046.85775245469 451.6046782199009Q1039.4271972490765 455.3546780432946 1029.7744199258964 455.3546780432946L1029.7744199258964 455.3546780432946Q1018.1077538086716 455.3546780432946 1008.7790505443036 449.77597460232005Q999.4271991328775 444.19727116134555 994.0105327213088 434.4287531028757Q988.5938663097402 424.6833831914638 988.5938663097402 412.1833837801516L988.5938663097402 412.1833837801516Q988.5938663097402 399.6833843688394 993.8484956919029 389.84542186919555Q999.1031250740656 380.03060751660973 1008.2697913090279 374.35931148740326Q1017.4364575439901 368.6880154581968 1028.941086631809 368.6880154581968L1028.941086631809 368.6880154581968Q1041.0938638372513 368.6880154581968 1049.519789366358 374.1046818697654Q1057.9457148954648 379.52134828133404 1062.0197887776703 389.9380144574275Q1066.0938626598759 400.354680633521 1065.2605293657882 415.5167169565015L1065.2605293657882 415.5167169565015L1001.9271990151398 415.5167169565015Q1002.7605323092273 423.6880128679704 1006.441087691447 429.8454199853945Q1010.0984949266089 436.02597524987664 1016.093865014627 439.4287528674006Q1022.1123832497032 442.8546786319824 1029.7744199258964 442.8546786319824L1029.7744199258964 442.8546786319824Q1038.2697898961771 442.8546786319824 1044.1957155430214 438.43338254390716Q1050.0984930428076 434.01208645583193 1052.2744188662582 426.8593090149144ZM1029.4271977200265 381.188014869509L1029.4271977200265 381.188014869509Q1019.1031241321651 381.188014869509 1012.1123837206536 387.1833849575272Q1005.0984951620839 393.1787550455455 1002.7605323092273 403.52597678046504L1002.7605323092273 403.52597678046504L1051.6031226015766 403.52597678046504Q1050.931826336895 392.5306069279219 1044.5197896018333 386.8593108987154Q1038.107752866771 381.188014869509 1029.4271977200265 381.188014869509ZM1074.9364548360263 382.85468145768397L1074.9364548360263 370.35468204637175L1123.9410821577817 370.35468204637175L1123.9410821577817 382.85468145768397L1074.9364548360263 382.85468145768397ZM1092.760528070675 453.68801145511964L1092.760528070675 348.6880164000973L1106.0938607760745 348.6880164000973L1106.0938607760745 453.68801145511964L1092.760528070675 453.68801145511964ZM1189.9364494200981 453.68801145511964L1142.274414627706 453.68801145511964L1142.274414627706 345.35468322374743L1184.9364496555734 345.35468322374743Q1201.7651525667288 345.35468322374743 1211.1864484193288 353.0167198999406Q1220.607744271929 360.6787565761338 1220.607744271929 374.35931148740326L1220.607744271929 374.35931148740326Q1220.607744271929 382.85468145768397 1217.181818507347 388.1787552810206Q1213.7790408898231 393.52597725141527 1207.5984856253413 396.1880141630836Q1201.4410785079172 398.85005107475195 1193.1077455670422 399.6833843688394L1193.1077455670422 399.6833843688394L1193.4318196258541 398.68801404534605Q1199.612374890336 399.01208810415784 1205.0984857430788 400.26208804528903Q1210.6077447428793 401.5120879864203 1214.8438556544907 404.1972730451466Q1219.1031147131598 406.8593099568149 1221.6031145954225 411.51208751547Q1224.1031144776848 416.1880132211831 1224.1031144776848 423.5259758385645L1224.1031144776848 423.5259758385645Q1224.1031144776848 433.36393833820836 1219.7744109778414 439.8454195144443Q1215.4457074779982 446.3500488377382 1207.691078213573 449.77597460232005Q1199.936448949148 453.17875221984394 1189.9364494200981 453.68801145511964L1189.9364494200981 453.68801145511964ZM1155.6077473331056 406.3500507215392L1155.6077473331056 441.1880120438075L1186.6031162437484 441.1880120438075Q1197.9457083021612 441.1880120438075 1204.3577450372231 436.9287529851381Q1210.7697817722851 432.69264207352677 1210.7697817722851 423.5259758385645L1210.7697817722851 423.5259758385645Q1210.7697817722851 416.1880132211831 1206.6957078900798 412.5306059860214Q1202.5984858608163 408.85005060380166 1196.2790417139863 407.60005066267047Q1189.9364494200981 406.3500507215392 1183.2697830673983 406.3500507215392L1183.2697830673983 406.3500507215392L1155.6077473331056 406.3500507215392ZM1155.6077473331056 357.8546826350596L1155.6077473331056 393.85005131022706L1183.2697830673983 393.85005131022706Q1194.6123751258112 393.85005131022706 1201.0244118608732 388.94264413393415Q1207.4364485959354 384.01208881058324 1207.4364485959354 374.84542257562094L1207.4364485959354 374.84542257562094Q1207.4364485959354 365.86394151712256 1201.0244118608732 361.85931207609104Q1194.6123751258112 357.8546826350596 1184.9364496555734 357.8546826350596L1184.9364496555734 357.8546826350596L1155.6077473331056 357.8546826350596ZM1242.4364469476095 453.68801145511964L1242.4364469476095 370.35468204637175L1255.7697796530092 370.35468204637175L1255.7697796530092 453.68801145511964L1242.4364469476095 453.68801145511964ZM1282.4364450638086 368.6880154581968L1282.4364450638086 382.85468145768397Q1273.9410750935276 382.85468145768397 1268.1771864760894 387.1139405163533Q1262.436446005709 391.3500514279646 1259.195705417591 397.4380141042148Q1255.931816682415 403.52597678046504 1254.9364463589218 409.19727280967146L1254.9364463589218 409.19727280967146L1254.7744093295155 399.52134733943353Q1254.7744093295155 398.01671778066446 1255.4457055941975 394.52134757490865Q1256.0938537118209 391.0259773691528 1257.9457054764598 386.6046812810776Q1259.7744090940405 382.1833851930024 1262.8531126527528 378.1093113107969Q1265.9318162114646 374.01208928153346 1270.7697789465838 371.3500523698651Q1275.6077416817025 368.6880154581968 1282.4364450638086 368.6880154581968L1282.4364450638086 368.6880154581968ZM1296.6031110632953 337.0213502828726L1313.9410732097267 337.0213502828726L1313.9410732097267 353.1787569293465L1296.6031110632953 353.1787569293465L1296.6031110632953 337.0213502828726ZM1298.5938517102823 453.68801145511964L1298.5938517102823 370.35468204637175L1311.927184415682 370.35468204637175L1311.927184415682 453.68801145511964L1298.5938517102823 453.68801145511964ZM1364.612367119657 440.5167157791259L1364.612367119657 440.5167157791259Q1355.7697749435065 440.5167157791259 1347.8531086496755 436.2806048675145Q1339.9364423558445 432.0213458088452 1335.0290351795516 424.0120869267822Q1330.0984798562008 416.0259761917772 1330.0984798562008 404.8454211627702L1330.0984798562008 404.8454211627702Q1330.0984798562008 393.68801428082116 1334.9364425913195 385.6093109575842Q1339.7744053264387 377.5306076343473 1347.5984790320376 373.109311546272Q1355.4457008846948 368.6880154581968 1364.612367119657 368.6880154581968L1364.612367119657 368.6880154581968Q1367.4364410607313 368.6880154581968 1370.0290335312257 369.10468210524056Q1372.5984778546622 369.52134875228427 1374.9364407075186 370.35468204637175L1374.9364407075186 370.35468204637175L1408.7790317062932 370.35468204637175L1408.7790317062932 384.6833850752648Q1401.603106118318 384.6833850752648 1394.5197731185744 382.0213481635965Q1387.436440118831 379.35931125192815 1382.436440354306 376.5120891637959L1382.436440354306 376.5120891637959L1381.7651440896243 375.86394104617233Q1387.5984771482367 379.01208904605835 1391.3484769716301 383.3639406929596Q1395.098476795024 387.6926441928029 1397.0197730008367 393.1093106043715Q1398.9410692066494 398.52597701594016 1398.9410692066494 404.8454211627702L1398.9410692066494 404.8454211627702Q1398.9410692066494 416.0259761917772 1394.1956990597623 424.0120869267822Q1389.4271807658174 432.0213458088452 1381.6031070602185 436.2806048675145Q1373.779033354619 440.5167157791259 1364.612367119657 440.5167157791259ZM1402.4364394124054 487.02134321861877L1389.1031067070057 487.02134321861877L1389.1031067070057 483.36393598345705Q1389.1031067070057 474.5213438073066 1384.5197735895244 470.5167143662751Q1379.9364404720432 466.5120849252436 1370.769774237081 466.5120849252436L1370.769774237081 466.5120849252436L1354.1031083553316 466.5120849252436Q1348.593849355531 466.5120849252436 1344.5197754733254 465.60930718998213Q1340.4457015911203 464.6833813076627 1337.760516532394 462.85467769008187Q1335.0984796207254 461.025974072501 1333.7790352384204 458.36393716083273Q1332.4364427090572 455.6787521021064 1332.4364427090572 452.34541892575646L1332.4364427090572 452.34541892575646Q1332.4364427090572 446.0259747789264 1336.2790351206827 442.76208604375046Q1340.0984793852504 439.5213454556325 1345.769775414457 438.688012161545Q1351.441071443663 437.8546788674575 1356.603108237594 438.688012161545L1356.603108237594 438.688012161545L1364.612367119657 440.5167157791259Q1355.6077379141007 441.0259750144015 1350.67718259075 442.3454193967067Q1345.769775414457 443.68801192606986 1345.769775414457 448.01671542591316L1345.769775414457 448.01671542591316Q1345.769775414457 450.5167153081756 1347.6910716202697 452.1139374551766Q1349.6123678260824 453.68801145511964 1353.43181209065 453.68801145511964L1353.43181209065 453.68801145511964L1370.769774237081 453.68801145511964Q1379.4271812367679 453.68801145511964 1386.603106824743 456.0954187491501Q1393.7790324127186 458.52597419023857 1398.107735912562 464.266714660619Q1402.4364394124054 470.03060327805736 1402.4364394124054 480.03060280710713L1402.4364394124054 480.03060280710713L1402.4364394124054 487.02134321861877ZM1364.612367119657 428.0167163678137L1364.612367119657 428.0167163678137Q1370.0984779723995 428.0167163678137 1374.8438481192866 425.35467945614533Q1379.6123664132315 422.692642544477 1382.5984773837117 417.5306057505462Q1385.6077365012497 412.3454208095575 1385.6077365012497 404.8454211627702L1385.6077365012497 404.8454211627702Q1385.6077365012497 397.3454215159829 1382.6910699719438 392.1139402808781Q1379.7744034426373 386.8593108987154 1374.9364407075186 384.10468139881516Q1370.0984779723995 381.3500518989149 1364.612367119657 381.3500518989149L1364.612367119657 381.3500518989149Q1359.1031081198562 381.3500518989149 1354.2651453847375 384.10468139881516Q1349.4271826496183 386.8593108987154 1346.4410716791385 392.0213476926462Q1343.4318125616 397.183384486577 1343.4318125616 404.8454211627702L1343.4318125616 404.8454211627702Q1343.4318125616 412.3454208095575 1346.4410716791385 417.5306057505462Q1349.4271826496183 422.692642544477 1354.2651453847375 425.35467945614533Q1359.1031081198562 428.0167163678137 1364.612367119657 428.0167163678137ZM1497.112360879566 453.68801145511964L1483.7790281741663 453.68801145511964L1483.7790281741663 401.3500509570144Q1483.7790281741663 394.84542163372043 1481.7651393801216 390.6093107221091Q1479.7743987331346 386.3500516634398 1475.7697692921033 384.1972739870471Q1471.765139851072 382.0213481635965 1465.7697697630538 382.0213481635965L1465.7697697630538 382.0213481635965Q1458.941066380948 382.0213481635965 1453.1077333223357 385.51671836935225Q1447.2744002637232 389.01208857510807 1443.5244004403298 395.1000512513583Q1439.774400616936 401.1880139276085 1438.9410673228485 409.19727280967146L1438.9410673228485 409.19727280967146L1438.7790302934427 399.52134733943353Q1439.6123635875301 392.5306069279219 1442.1818079109667 386.8593108987154Q1444.7744003814605 381.188014869509 1448.6864372342602 377.1139409873035Q1452.59847408706 373.0167189580401 1457.691066439817 370.86394128164744Q1462.7605106455158 368.6880154581968 1468.4318066747219 368.6880154581968L1468.4318066747219 368.6880154581968Q1475.0984730274217 368.6880154581968 1480.4456949978166 370.67875610518354Q1485.7697688211533 372.6926448992283 1489.4271760563147 376.5120891637959Q1493.1077314385343 380.3546815754215 1495.0984720855213 385.7713479869901Q1497.112360879566 391.1880143985587 1497.112360879566 398.01671778066446L1497.112360879566 398.01671778066446L1497.112360879566 453.68801145511964ZM1439.774400616936 453.68801145511964L1426.4410679115363 453.68801145511964L1426.4410679115363 337.0213502828726L1439.774400616936 337.0213502828726L1439.774400616936 453.68801145511964ZM1512.945693467228 382.85468145768397L1512.945693467228 370.35468204637175L1561.9271726419256 370.35468204637175L1561.9271726419256 382.85468145768397L1512.945693467228 382.85468145768397ZM1530.769766701877 453.68801145511964L1530.769766701877 348.6880164000973L1544.1030994072767 348.6880164000973L1544.1030994072767 453.68801145511964L1530.769766701877 453.68801145511964Z " fill="#292826" transform="matrix(0.5602053771689173,0,0,0.5602053771689173,0,69.18342636799711)"/></g></svg>